<?xml version="1.0" encoding="UTF-8" standalone="no"?>
<!-- Created with Inkscape (http://www.inkscape.org/) -->

<svg
   width="546.30414mm"
   height="546.30408mm"
   viewBox="0 0 546.30414 546.30408"
   version="1.1"
   id="svg1"
   xml:space="preserve"
   inkscape:version="1.3 (0e150ed6c4, 2023-07-21)"
   sodipodi:docname="rssPresso.svg"
   xmlns:inkscape="http://www.inkscape.org/namespaces/inkscape"
   xmlns:sodipodi="http://sodipodi.sourceforge.net/DTD/sodipodi-0.dtd"
   xmlns="http://www.w3.org/2000/svg"
   xmlns:svg="http://www.w3.org/2000/svg"><sodipodi:namedview
     id="namedview1"
     pagecolor="#505050"
     bordercolor="#eeeeee"
     borderopacity="1"
     inkscape:showpageshadow="0"
     inkscape:pageopacity="0"
     inkscape:pagecheckerboard="0"
     inkscape:deskcolor="#d1d1d1"
     inkscape:document-units="mm"
     inkscape:zoom="0.18062044"
     inkscape:cx="-7092.2206"
     inkscape:cy="2300.4041"
     inkscape:window-width="1920"
     inkscape:window-height="1008"
     inkscape:window-x="0"
     inkscape:window-y="40"
     inkscape:window-maximized="1"
     inkscape:current-layer="layer1" /><defs
     id="defs1"><inkscape:path-effect
       effect="bspline"
       id="path-effect35"
       is_visible="true"
       lpeversion="1.3"
       weight="33.333333"
       steps="2"
       helper_size="0"
       apply_no_weight="true"
       apply_with_weight="true"
       only_selected="false"
       uniform="false" /><inkscape:path-effect
       effect="bspline"
       id="path-effect32"
       is_visible="true"
       lpeversion="1.3"
       weight="33.333333"
       steps="2"
       helper_size="0"
       apply_no_weight="true"
       apply_with_weight="true"
       only_selected="false"
       uniform="false" /></defs><g
     inkscape:label="Layer 1"
     inkscape:groupmode="layer"
     id="layer1"
     transform="translate(2299.866,-300.50924)"><circle
       style="fill:#e0c1a7;fill-opacity:1;stroke:#845c47;stroke-width:0;paint-order:stroke fill markers"
       id="circle1"
       cx="-2026.714"
       cy="573.66125"
       r="273.15201"
       inkscape:export-filename="../../round_logo256.png"
       inkscape:export-xdpi="11.902528"
       inkscape:export-ydpi="11.902528" /><path
       id="path2"
       style="fill:#b39e8b;fill-opacity:1;stroke:#845c47;stroke-width:0;paint-order:stroke fill markers"
       d="m -1754.0333,558.32649 a 273.15201,273.15201 0 0 1 0.077,3.1321 273.15201,273.15201 0 0 1 -273.1524,273.1518 273.15201,273.15201 0 0 1 -272.5182,-264.2903 273.15201,273.15201 0 0 0 -0.2388,3.3414 273.15201,273.15201 0 0 0 273.1518,273.1518 273.15201,273.15201 0 0 0 273.1518,-273.1518 273.15201,273.15201 0 0 0 -0.4712,-15.335 z" /><g
       id="g35"
       transform="translate(-1650.1183,68.187589)"><ellipse
         style="fill:#906550;fill-opacity:1;stroke-width:0.264999;paint-order:stroke fill markers"
         id="ellipse25"
         cx="-446.20941"
         cy="493.31461"
         rx="101.78937"
         ry="146.85164"
         inkscape:export-filename="../../beans.png"
         inkscape:export-xdpi="37.936295"
         inkscape:export-ydpi="37.936295" /><path
         id="path25"
         style="fill:#775440;fill-opacity:1;stroke-width:0.264999;paint-order:stroke fill markers"
         d="m -415.7888,353.46262 a 101.78937,146.85164 0 0 1 46.05973,122.51656 101.78937,146.85164 0 0 1 -101.78914,146.8515 101.78937,146.85164 0 0 1 -30.42037,-6.99957 101.78937,146.85164 0 0 0 55.72942,24.33546 101.78937,146.85164 0 0 0 101.78913,-146.85202 101.78937,146.85164 0 0 0 -71.36877,-139.85193 z" /><path
         id="path26"
         style="fill:#775440;fill-opacity:1;stroke-width:0.264999;paint-order:stroke fill markers"
         d="m -374.86404,419.26501 a 101.78937,146.85164 41.206145 0 0 -47.38782,39.78673 101.78937,146.85164 41.206145 0 0 -26.99317,170.31207 101.78937,146.85164 0 0 0 85.0646,-144.60878 101.78937,146.85164 0 0 0 -10.68361,-65.49002 z" /><path
         style="fill:#4c3434;fill-opacity:1;stroke:#000000;stroke-width:0;stroke-linecap:butt;stroke-linejoin:miter;stroke-dasharray:none;stroke-opacity:1"
         d="m -696.72262,-41.045479 c -8.69231,2.338912 -24.70373,8.475228 -37.0298,19.511114 -12.32608,11.035885 -20.96649,26.9707068 -25.7606,38.168143 -4.79411,11.197436 -5.74171,17.656898 -10.00291,28.17098 -4.26119,10.514082 -11.83568,25.082084 -20.07695,38.01385 -8.24127,12.931765 -17.14884,24.226572 -21.35595,30.786192 -4.20712,6.55961 -3.71363,8.38375 -1.28725,9.48997 2.42638,1.10622 6.7855,1.49448 15.58537,-3.09767 8.79987,-4.59214 22.03986,-14.1643 31.98149,-23.443323 9.94162,-9.279028 16.58433,-18.264369 22.63642,-30.353184 6.05209,-12.088815 11.51321,-27.280328 20.69728,-44.874676 9.18407,-17.5943478 22.09046,-37.590422 28.71955,-48.28975 6.62909,-10.699328 6.98062,-12.101446 6.46975,-13.531772 -0.51086,-1.430326 -1.88408,-2.888785 -10.5764,-0.549874 z"
         id="path27"
         inkscape:path-effect="#path-effect32"
         inkscape:original-d="m -689.40354,-44.842874 c -16.01139,6.136309 -32.02281,12.272618 -48.0342,18.40893 -8.64076,15.935464 -17.28116,31.8702914 -25.92176,47.805437 -0.94763,6.459721 -1.89524,12.919181 -2.84284,19.378772 -7.57478,14.568577 -15.14928,29.136572 -22.7239,43.704858 -8.90791,11.295253 -17.81548,22.590057 -26.72321,33.885077 0.4935,1.82421 0.98698,3.64835 1.48048,5.47252 4.35927,0.38828 8.71839,0.77653 13.07759,1.16479 13.24054,-9.57255 26.48053,-19.14471 39.72081,-28.717065 6.64297,-8.985697 13.28568,-17.971037 19.92852,-26.956556 5.46134,-15.192111 10.92248,-30.383618 16.38369,-45.575426 12.90693,-19.9968824 25.8133,-39.992965 38.71994,-59.989447 0.35155,-1.402175 0.70308,-2.804292 1.0546,-4.206438 -1.37326,-1.458513 -2.74648,-2.916968 -4.11972,-4.375452 z"
         transform="rotate(137.54543,-686.35588,325.85883)" /><path
         id="path28"
         style="fill:#3f2c2c;fill-opacity:1;stroke-width:0.264999;paint-order:stroke fill markers"
         d="m -435.59087,476.23034 a 101.78937,146.85164 41.206145 0 0 -22.21932,40.87192 c 0.96154,3.16501 1.91351,6.40888 2.82412,9.83351 5.10015,19.18061 9.07495,42.64597 11.40602,55.01473 2.33108,12.36876 3.01806,13.64059 4.36046,14.35106 1.3424,0.71048 3.34018,0.85959 8.1747,-6.73344 4.83452,-7.59303 12.50602,-22.92831 14.15107,-39.39088 1.64505,-16.46256 -2.73604,-34.05202 -6.75721,-45.54967 -4.02117,-11.49765 -7.68237,-16.90308 -11.63547,-27.53682 -0.10073,-0.27097 -0.20329,-0.58276 -0.30437,-0.86041 z" /><ellipse
         style="fill:#906550;fill-opacity:1;stroke-width:0.264999;paint-order:stroke fill markers"
         id="ellipse28"
         cx="105.40053"
         cy="619.14392"
         rx="101.78937"
         ry="146.85164"
         transform="rotate(41.206145)" /><path
         id="path29"
         style="fill:#775440;fill-opacity:1;stroke-width:0.264999;paint-order:stroke fill markers"
         d="m -205.39918,483.81246 a 101.78937,146.85164 41.206145 0 1 -43.98181,85.33846 101.78937,146.85164 41.206145 0 1 -173.32224,43.42732 101.78937,146.85164 41.206145 0 1 -26.24491,-59.12869 101.78937,146.85164 41.206145 0 0 23.63059,92.27758 101.78937,146.85164 41.206145 0 0 173.32225,-43.42682 101.78937,146.85164 41.206145 0 0 46.59612,-118.48785 z" /><path
         style="fill:#4c3434;fill-opacity:1;stroke:#000000;stroke-width:0;stroke-linecap:butt;stroke-linejoin:miter;stroke-dasharray:none;stroke-opacity:1"
         d="m -696.72262,-41.045479 c -8.69231,2.338912 -24.70373,8.475228 -37.0298,19.511114 -12.32608,11.035885 -20.96649,26.9707068 -25.7606,38.168143 -4.79411,11.197436 -5.74171,17.656898 -10.00291,28.17098 -4.26119,10.514082 -11.83568,25.082084 -20.07695,38.01385 -8.24127,12.931765 -17.14884,24.226572 -21.35595,30.786192 -4.20712,6.55961 -3.71363,8.38375 -1.28725,9.48997 2.42638,1.10622 6.7855,1.49448 15.58537,-3.09767 8.79987,-4.59214 22.03986,-14.1643 31.98149,-23.443323 9.94162,-9.279028 16.58433,-18.264369 22.63642,-30.353184 6.05209,-12.088815 11.51321,-27.280328 20.69728,-44.874676 9.18407,-17.5943478 22.09046,-37.590422 28.71955,-48.28975 6.62909,-10.699328 6.98062,-12.101446 6.46975,-13.531772 -0.51086,-1.430326 -1.88408,-2.888785 -10.5764,-0.549874 z"
         id="path30"
         inkscape:path-effect="#path-effect35"
         inkscape:original-d="m -689.40354,-44.842874 c -16.01139,6.136309 -32.02281,12.272618 -48.0342,18.40893 -8.64076,15.935464 -17.28116,31.8702914 -25.92176,47.805437 -0.94763,6.459721 -1.89524,12.919181 -2.84284,19.378772 -7.57478,14.568577 -15.14928,29.136572 -22.7239,43.704858 -8.90791,11.295253 -17.81548,22.590057 -26.72321,33.885077 0.4935,1.82421 0.98698,3.64835 1.48048,5.47252 4.35927,0.38828 8.71839,0.77653 13.07759,1.16479 13.24054,-9.57255 26.48053,-19.14471 39.72081,-28.717065 6.64297,-8.985697 13.28568,-17.971037 19.92852,-26.956556 5.46134,-15.192111 10.92248,-30.383618 16.38369,-45.575426 12.90693,-19.9968824 25.8133,-39.992965 38.71994,-59.989447 0.35155,-1.402175 0.70308,-2.804292 1.0546,-4.206438 -1.37326,-1.458513 -2.74648,-2.916968 -4.11972,-4.375452 z"
         transform="translate(416.39248,488.11373)" /></g></g></svg>
